<svg width="256" height="256" viewBox="0 0 256 256" fill="none" xmlns="http://www.w3.org/2000/svg">
<g clip-path="url(#clip0_2_13)">
<path d="M8.53333 59.7333V51.2C6.27015 51.2 4.09967 52.099 2.49936 53.6994C0.899045 55.2997 0 57.4702 0 59.7333H8.53333ZM110.933 59.7333H119.467C119.467 57.4702 118.568 55.2997 116.967 53.6994C115.367 52.099 113.197 51.2 110.933 51.2V59.7333ZM110.933 247.467V256C113.197 256 115.367 255.101 116.967 253.501C118.568 251.9 119.467 249.73 119.467 247.467H110.933ZM8.53333 247.467H0C0 249.73 0.899045 251.9 2.49936 253.501C4.09967 255.101 6.27015 256 8.53333 256V247.467ZM145.067 59.7333V51.2C142.803 51.2 140.633 52.099 139.033 53.6994C137.432 55.2997 136.533 57.4702 136.533 59.7333H145.067ZM247.467 59.7333H256C256 57.4702 255.101 55.2997 253.501 53.6994C251.9 52.099 249.73 51.2 247.467 51.2V59.7333ZM247.467 162.133V170.667C249.73 170.667 251.9 169.768 253.501 168.167C255.101 166.567 256 164.397 256 162.133H247.467ZM145.067 162.133H136.533C136.533 164.397 137.432 166.567 139.033 168.167C140.633 169.768 142.803 170.667 145.067 170.667V162.133ZM0 17.0667H119.467V0H0V17.0667ZM136.533 17.0667H256V0H136.533V17.0667ZM8.53333 68.2667H110.933V51.2H8.53333V68.2667ZM102.4 59.7333V247.467H119.467V59.7333H102.4ZM110.933 238.933H8.53333V256H110.933V238.933ZM17.0667 247.467V59.7333H0L0 247.467H17.0667ZM145.067 68.2667H247.467V51.2H145.067V68.2667ZM238.933 59.7333V162.133H256V59.7333H238.933ZM247.467 153.6H145.067V170.667H247.467V153.6ZM153.6 162.133V59.7333H136.533V162.133H153.6Z" fill="#10b981"/>
</g>
<defs>
<clipPath id="clip0_2_13">
<rect width="256" height="256" fill="white"/>
</clipPath>
</defs>
</svg>
